<svg xmlns="http://www.w3.org/2000/svg" width="24" height="24" viewBox="0 0 24 24">
        <path id="Icon_awesome-arrow-alt-circle-down" data-name="Icon awesome-arrow-alt-circle-down" d="M24.563,12.563a12,12,0,1,1-12-12A12,12,0,0,1,24.563,12.563ZM10.433,6.95v5.613H7a.581.581,0,0,0-.411.992l5.56,5.531a.575.575,0,0,0,.818,0l5.56-5.531a.581.581,0,0,0-.411-.992H14.692V6.95a.582.582,0,0,0-.581-.581h-3.1A.582.582,0,0,0,10.433,6.95Z" transform="translate(-0.563 24.563) rotate(-90)" fill="#fccd1b"></path>
      </svg>